<?xml version="1.0" encoding="UTF-8"?>
<svg width="24px" height="24px" viewBox="0 0 24 24" version="1.1" xmlns="http://www.w3.org/2000/svg" xmlns:xlink="http://www.w3.org/1999/xlink">
    <title>Icon / facebook</title>
    <g id="Icon-/-facebook" stroke="none" stroke-width="1" fill="none" fill-rule="evenodd">
        <g id="编组备份-5" transform="translate(2.000000, 2.000000)">
            <path d="M10,0 C15.523,0 20,4.477 20,10 C20,15.523 15.523,20 10,20 C4.477,20 0,15.523 0,10 C0,4.477 4.477,0 10,0" id="Fill-1" fill="#1F74FC"></path>
            <path d="M11.33495,9.4729 L11.33495,8.2609 C11.33495,7.6229 11.71795,7.5589 11.97295,7.5589 L13.63195,7.5589 L13.63195,4.9429 L11.27095,4.9429 C8.65545,4.9429 8.08095,6.8574 8.08095,8.1334 L8.08095,9.5369 L6.61395,9.5369 L6.61395,11.3874 L6.61395,12.4719 L8.14495,12.4719 L8.14495,19.9999 L11.14345,19.9999 L11.14345,12.4719 L13.37645,12.4719 L13.50445,11.3234 L13.63195,9.4729 L11.33495,9.4729 Z" id="Fill-3" fill="#FFFFFF"></path>
        </g>
    </g>
</svg>